<mxfile host="app.diagrams.net" agent="Mozilla/5.0 (Macintosh; Intel Mac OS X 10_15_7) AppleWebKit/537.36 (KHTML, like Gecko) Chrome/137.0.0.0 Safari/537.36" version="26.2.9">
  <diagram name="Page-1" id="n66T14T6kXnlYEdW8ocM">
    <mxGraphModel dx="1858" dy="938" grid="0" gridSize="10" guides="1" tooltips="1" connect="1" arrows="1" fold="1" page="0" pageScale="1" pageWidth="850" pageHeight="1100" background="light-dark(#000000,#000000)" math="0" shadow="0">
      <root>
        <mxCell id="0" />
        <mxCell id="1" parent="0" />
        <mxCell id="KjCvUa1PRuN88ewenq66-60" value="" style="rounded=0;whiteSpace=wrap;html=1;fillColor=none;dashed=1;" vertex="1" parent="1">
          <mxGeometry x="-22" y="55" width="855" height="464" as="geometry" />
        </mxCell>
        <mxCell id="KjCvUa1PRuN88ewenq66-62" value="" style="rounded=0;whiteSpace=wrap;html=1;fillColor=none;dashed=1;" vertex="1" parent="1">
          <mxGeometry x="206" y="658" width="525" height="220" as="geometry" />
        </mxCell>
        <mxCell id="KjCvUa1PRuN88ewenq66-39" value="CloudTrail" style="outlineConnect=0;dashed=0;verticalLabelPosition=bottom;verticalAlign=top;align=center;html=1;shape=mxgraph.aws3.cloudtrail;fillColor=#759C3E;gradientColor=none;" vertex="1" parent="1">
          <mxGeometry x="141.5" y="106" width="76.5" height="93" as="geometry" />
        </mxCell>
        <mxCell id="KjCvUa1PRuN88ewenq66-51" style="edgeStyle=orthogonalEdgeStyle;rounded=0;orthogonalLoop=1;jettySize=auto;html=1;exitX=1;exitY=0.5;exitDx=0;exitDy=0;exitPerimeter=0;" edge="1" parent="1" source="KjCvUa1PRuN88ewenq66-40" target="KjCvUa1PRuN88ewenq66-43">
          <mxGeometry relative="1" as="geometry" />
        </mxCell>
        <mxCell id="KjCvUa1PRuN88ewenq66-40" value="Config" style="outlineConnect=0;dashed=0;verticalLabelPosition=bottom;verticalAlign=top;align=center;html=1;shape=mxgraph.aws3.config;fillColor=#759C3E;gradientColor=none;" vertex="1" parent="1">
          <mxGeometry x="292" y="104" width="76.5" height="93" as="geometry" />
        </mxCell>
        <mxCell id="KjCvUa1PRuN88ewenq66-41" value="Guard Duty" style="sketch=0;points=[[0,0,0],[0.25,0,0],[0.5,0,0],[0.75,0,0],[1,0,0],[0,1,0],[0.25,1,0],[0.5,1,0],[0.75,1,0],[1,1,0],[0,0.25,0],[0,0.5,0],[0,0.75,0],[1,0.25,0],[1,0.5,0],[1,0.75,0]];outlineConnect=0;fontColor=#232F3E;fillColor=#DD344C;strokeColor=#ffffff;dashed=0;verticalLabelPosition=bottom;verticalAlign=top;align=center;html=1;fontSize=12;fontStyle=0;aspect=fixed;shape=mxgraph.aws4.resourceIcon;resIcon=mxgraph.aws4.guardduty;" vertex="1" parent="1">
          <mxGeometry x="17" y="106" width="78" height="78" as="geometry" />
        </mxCell>
        <mxCell id="KjCvUa1PRuN88ewenq66-42" value="Lambda" style="outlineConnect=0;dashed=0;verticalLabelPosition=bottom;verticalAlign=top;align=center;html=1;shape=mxgraph.aws3.lambda;fillColor=#F58534;gradientColor=none;" vertex="1" parent="1">
          <mxGeometry x="375" y="405" width="76.5" height="93" as="geometry" />
        </mxCell>
        <mxCell id="KjCvUa1PRuN88ewenq66-52" style="edgeStyle=orthogonalEdgeStyle;rounded=0;orthogonalLoop=1;jettySize=auto;html=1;exitX=0.5;exitY=1;exitDx=0;exitDy=0;exitPerimeter=0;" edge="1" parent="1" source="KjCvUa1PRuN88ewenq66-43" target="KjCvUa1PRuN88ewenq66-42">
          <mxGeometry relative="1" as="geometry" />
        </mxCell>
        <mxCell id="KjCvUa1PRuN88ewenq66-43" value="EventBrid&lt;span style=&quot;background-color: transparent; color: light-dark(rgb(35, 47, 62), rgb(189, 199, 212));&quot;&gt;ge&lt;/span&gt;" style="sketch=0;points=[[0,0,0],[0.25,0,0],[0.5,0,0],[0.75,0,0],[1,0,0],[0,1,0],[0.25,1,0],[0.5,1,0],[0.75,1,0],[1,1,0],[0,0.25,0],[0,0.5,0],[0,0.75,0],[1,0.25,0],[1,0.5,0],[1,0.75,0]];outlineConnect=0;fontColor=#232F3E;fillColor=#E7157B;strokeColor=#ffffff;dashed=0;verticalLabelPosition=bottom;verticalAlign=top;align=center;html=1;fontSize=12;fontStyle=0;aspect=fixed;shape=mxgraph.aws4.resourceIcon;resIcon=mxgraph.aws4.eventbridge;" vertex="1" parent="1">
          <mxGeometry x="373" y="264.75" width="78.5" height="78.5" as="geometry" />
        </mxCell>
        <mxCell id="KjCvUa1PRuN88ewenq66-44" value="Security Hub" style="sketch=0;points=[[0,0,0],[0.25,0,0],[0.5,0,0],[0.75,0,0],[1,0,0],[0,1,0],[0.25,1,0],[0.5,1,0],[0.75,1,0],[1,1,0],[0,0.25,0],[0,0.5,0],[0,0.75,0],[1,0.25,0],[1,0.5,0],[1,0.75,0]];outlineConnect=0;fontColor=#232F3E;fillColor=#DD344C;strokeColor=#ffffff;dashed=0;verticalLabelPosition=bottom;verticalAlign=top;align=center;html=1;fontSize=12;fontStyle=0;aspect=fixed;shape=mxgraph.aws4.resourceIcon;resIcon=mxgraph.aws4.security_hub;" vertex="1" parent="1">
          <mxGeometry x="202" y="294" width="78" height="78" as="geometry" />
        </mxCell>
        <mxCell id="KjCvUa1PRuN88ewenq66-46" style="edgeStyle=orthogonalEdgeStyle;rounded=0;orthogonalLoop=1;jettySize=auto;html=1;exitX=0.5;exitY=1;exitDx=0;exitDy=0;exitPerimeter=0;entryX=0;entryY=0.5;entryDx=0;entryDy=0;entryPerimeter=0;" edge="1" parent="1" source="KjCvUa1PRuN88ewenq66-41" target="KjCvUa1PRuN88ewenq66-44">
          <mxGeometry relative="1" as="geometry" />
        </mxCell>
        <mxCell id="KjCvUa1PRuN88ewenq66-49" style="edgeStyle=orthogonalEdgeStyle;rounded=0;orthogonalLoop=1;jettySize=auto;html=1;exitX=0.5;exitY=1;exitDx=0;exitDy=0;exitPerimeter=0;entryX=0.5;entryY=0;entryDx=0;entryDy=0;entryPerimeter=0;" edge="1" parent="1" source="KjCvUa1PRuN88ewenq66-39" target="KjCvUa1PRuN88ewenq66-44">
          <mxGeometry relative="1" as="geometry" />
        </mxCell>
        <mxCell id="KjCvUa1PRuN88ewenq66-50" style="edgeStyle=orthogonalEdgeStyle;rounded=0;orthogonalLoop=1;jettySize=auto;html=1;exitX=0.5;exitY=1;exitDx=0;exitDy=0;exitPerimeter=0;entryX=1;entryY=0.5;entryDx=0;entryDy=0;entryPerimeter=0;" edge="1" parent="1" source="KjCvUa1PRuN88ewenq66-40" target="KjCvUa1PRuN88ewenq66-44">
          <mxGeometry relative="1" as="geometry" />
        </mxCell>
        <mxCell id="KjCvUa1PRuN88ewenq66-64" value="Private Subnet" style="sketch=0;outlineConnect=0;gradientColor=none;html=1;whiteSpace=wrap;fontSize=12;fontStyle=0;shape=mxgraph.aws4.group;grIcon=mxgraph.aws4.group_subnet;strokeColor=#879196;fillColor=none;verticalAlign=top;align=left;spacingLeft=30;fontColor=#879196;dashed=0;" vertex="1" parent="1">
          <mxGeometry x="563" y="730" width="130" height="130" as="geometry" />
        </mxCell>
        <mxCell id="KjCvUa1PRuN88ewenq66-53" value="IAM" style="outlineConnect=0;dashed=0;verticalLabelPosition=bottom;verticalAlign=top;align=center;html=1;shape=mxgraph.aws3.iam;fillColor=#759C3E;gradientColor=none;" vertex="1" parent="1">
          <mxGeometry x="587" y="116" width="42" height="81" as="geometry" />
        </mxCell>
        <mxCell id="KjCvUa1PRuN88ewenq66-54" value="Access Analyzer" style="sketch=0;outlineConnect=0;fontColor=#232F3E;gradientColor=none;fillColor=#DD344C;strokeColor=none;dashed=0;verticalLabelPosition=bottom;verticalAlign=top;align=center;html=1;fontSize=12;fontStyle=0;aspect=fixed;pointerEvents=1;shape=mxgraph.aws4.access_analyzer;" vertex="1" parent="1">
          <mxGeometry x="693" y="112" width="78" height="77" as="geometry" />
        </mxCell>
        <mxCell id="KjCvUa1PRuN88ewenq66-56" value="RDS" style="outlineConnect=0;dashed=0;verticalLabelPosition=bottom;verticalAlign=top;align=center;html=1;shape=mxgraph.aws3.rds;fillColor=#2E73B8;gradientColor=none;" vertex="1" parent="1">
          <mxGeometry x="599" y="763.5" width="72" height="81" as="geometry" />
        </mxCell>
        <mxCell id="KjCvUa1PRuN88ewenq66-57" value="VPC" style="outlineConnect=0;dashed=0;verticalLabelPosition=bottom;verticalAlign=top;align=center;html=1;shape=mxgraph.aws3.vpc;fillColor=#F58534;gradientColor=none;" vertex="1" parent="1">
          <mxGeometry x="684" y="658" width="43" height="54" as="geometry" />
        </mxCell>
        <mxCell id="KjCvUa1PRuN88ewenq66-65" value="Public Subnet" style="sketch=0;outlineConnect=0;gradientColor=none;html=1;whiteSpace=wrap;fontSize=12;fontStyle=0;shape=mxgraph.aws4.group;grIcon=mxgraph.aws4.group_subnet;strokeColor=#879196;fillColor=none;verticalAlign=top;align=left;spacingLeft=30;fontColor=#879196;dashed=0;" vertex="1" parent="1">
          <mxGeometry x="247.25" y="717" width="287.75" height="132" as="geometry" />
        </mxCell>
        <mxCell id="KjCvUa1PRuN88ewenq66-70" style="edgeStyle=orthogonalEdgeStyle;rounded=0;orthogonalLoop=1;jettySize=auto;html=1;entryX=1;entryY=0.5;entryDx=0;entryDy=0;" edge="1" parent="1" source="KjCvUa1PRuN88ewenq66-58" target="KjCvUa1PRuN88ewenq66-66">
          <mxGeometry relative="1" as="geometry" />
        </mxCell>
        <mxCell id="KjCvUa1PRuN88ewenq66-58" value="IGW" style="outlineConnect=0;dashed=0;verticalLabelPosition=bottom;verticalAlign=top;align=center;html=1;shape=mxgraph.aws3.internet_gateway;fillColor=#F58534;gradientColor=none;" vertex="1" parent="1">
          <mxGeometry x="166" y="755" width="52" height="56" as="geometry" />
        </mxCell>
        <mxCell id="KjCvUa1PRuN88ewenq66-59" value="Web Server" style="image;aspect=fixed;perimeter=ellipsePerimeter;html=1;align=center;shadow=0;dashed=0;spacingTop=3;image=img/lib/active_directory/web_server.svg;" vertex="1" parent="1">
          <mxGeometry x="292" y="746" width="68.8" height="86" as="geometry" />
        </mxCell>
        <mxCell id="KjCvUa1PRuN88ewenq66-55" value="EC2" style="outlineConnect=0;dashed=0;verticalLabelPosition=bottom;verticalAlign=top;align=center;html=1;shape=mxgraph.aws3.ec2;fillColor=#F58534;gradientColor=none;" vertex="1" parent="1">
          <mxGeometry x="350.5" y="778" width="47" height="52" as="geometry" />
        </mxCell>
        <mxCell id="KjCvUa1PRuN88ewenq66-67" style="edgeStyle=orthogonalEdgeStyle;rounded=0;orthogonalLoop=1;jettySize=auto;html=1;" edge="1" parent="1" source="KjCvUa1PRuN88ewenq66-60" target="KjCvUa1PRuN88ewenq66-62">
          <mxGeometry relative="1" as="geometry" />
        </mxCell>
        <mxCell id="KjCvUa1PRuN88ewenq66-61" value="Amaani SecureCoud Frameoerk" style="text;html=1;align=center;verticalAlign=middle;whiteSpace=wrap;rounded=0;fontSize=15;fontStyle=1" vertex="1" parent="1">
          <mxGeometry x="-18" y="65" width="166" height="30" as="geometry" />
        </mxCell>
        <mxCell id="KjCvUa1PRuN88ewenq66-63" value="Client Environment" style="text;html=1;align=center;verticalAlign=middle;whiteSpace=wrap;rounded=0;fontStyle=1;fontSize=15;" vertex="1" parent="1">
          <mxGeometry x="206" y="649" width="120" height="30" as="geometry" />
        </mxCell>
        <mxCell id="KjCvUa1PRuN88ewenq66-66" value="Internet" style="image;aspect=fixed;perimeter=ellipsePerimeter;html=1;align=center;shadow=0;dashed=0;spacingTop=3;image=img/lib/active_directory/internet_cloud.svg;" vertex="1" parent="1">
          <mxGeometry x="-44" y="717" width="105.95" height="66.75" as="geometry" />
        </mxCell>
        <mxCell id="KjCvUa1PRuN88ewenq66-68" value="CloudWatch" style="outlineConnect=0;dashed=0;verticalLabelPosition=bottom;verticalAlign=top;align=center;html=1;shape=mxgraph.aws3.cloudwatch;fillColor=#759C3E;gradientColor=none;" vertex="1" parent="1">
          <mxGeometry x="459" y="110" width="82.5" height="93" as="geometry" />
        </mxCell>
      </root>
    </mxGraphModel>
  </diagram>
</mxfile>
